<?xml version="1.0" encoding="iso-8859-1"?>
<!-- Generator: Adobe Illustrator 19.0.0, SVG Export Plug-In . SVG Version: 6.00 Build 0)  -->
<svg version="1.1" id="Capa_1" xmlns="http://www.w3.org/2000/svg" xmlns:xlink="http://www.w3.org/1999/xlink" x="0px" y="0px"
	 viewBox="0 0 512 512" style="enable-background:new 0 0 512 512;" xml:space="preserve">
<path style="fill:#FEDBAB;" d="M506.029,289.999L419.03,416c-16.8,22.5-43.801,36-72.001,36h-257L74.428,294.2l15.601-14.099
	c22.8-20.101,37.8-33.9,67.2-40.801c35.099-8.099,70,1.8,93.1,22.8c6,5.101,9.6,9.901,17.1,9.901h3.6c69.6,0,6.7,0,76,0
	c16.5,0,30,13.5,30,30s-13.5,30-30,30h-61c-8.401,0-15,6.599-15,15s6.599,15,15,15h70.901c5.7,0,16.5-3.6,22.2-9.6l81-100.8
	c10.199-11.1,27.299-12.9,39.6-3.9C513.228,257.601,515.929,276.799,506.029,289.999z"/>
<g>
	<path style="fill:#FEC478;" d="M271.029,347v-75c69.6,0,6.7,0,76,0c16.5,0,30,13.5,30,30s-13.5,30-30,30h-61
		C277.628,332,271.029,338.599,271.029,347z"/>
	<path style="fill:#FEC478;" d="M506.029,289.999L419.03,416c-16.8,22.5-43.801,36-72.001,36h-76V347c0,8.401,6.599,15,15,15h70.901
		c5.7,0,16.5-3.6,22.2-9.6l81-100.8c10.199-11.1,27.299-12.9,39.6-3.9C513.228,257.601,515.929,276.799,506.029,289.999z"/>
</g>
<path style="fill:#17ACE8;" d="M91.611,503.709l-90-180c-3.706-7.412-0.703-16.421,6.709-20.127L41.484,287
	c22.222-11.089,49.277-2.065,60.381,20.127l63.164,126.328c11.125,22.25,2.123,49.256-20.127,60.381l-33.164,16.582
	C104.251,514.136,95.297,511.06,91.611,503.709z"/>
<path style="fill:#1689FC;" d="M271.029,90c-49.501,0-91,41.499-91,91v16c0,8.401,6.599,15,15,15h152c8.401,0,15-6.599,15-15v-16
	C362.029,131.499,320.53,90,271.029,90z"/>
<path style="fill:#136EF1;" d="M362.029,181v16c0,8.401-6.599,15-15,15h-76V90C320.53,90,362.029,131.499,362.029,181z"/>
<path style="fill:#17ACE8;" d="M271.029,0c-32.999,0-61,27.001-61,60s28.001,60,61,60s61-27.001,61-60S304.028,0,271.029,0z"/>
<path style="fill:#1689FC;" d="M332.029,60c0,32.999-28.001,60-61,60V0C304.028,0,332.029,27.001,332.029,60z"/>
<g>
</g>
<g>
</g>
<g>
</g>
<g>
</g>
<g>
</g>
<g>
</g>
<g>
</g>
<g>
</g>
<g>
</g>
<g>
</g>
<g>
</g>
<g>
</g>
<g>
</g>
<g>
</g>
<g>
</g>
</svg>
