<svg enable-background="new 0 0 110 110" height="512" viewBox="0 0 110 110" width="512" xmlns="http://www.w3.org/2000/svg"><path d="m80.653542 38.180904h9.460316v21.882759h-9.460316z" fill="#f7be56"/><path d="m101.1114197 54.1461029c-.7272949-.8003044-1.5830994-1.475071-2.5324326-1.9949722l-8.4651413-3.970768c-.0008774.0004654-.0009232.0005112-.0018082.0010185-.0925064.984726-.5344467 1.9284058-1.2883759 2.5676842-1.9489288 1.6523552-4.8856812 1.6652832-6.8498459.0375252-.7473602-.6193619-1.2006912-1.5261688-1.319191-2.4895363l-.0010681-.0086632-8.4680557 3.8627396c-.9493332.5199013-1.8051376 1.1946678-2.5295181 1.9949722-1.6269684 1.7904968-2.5266342 4.1214142-2.5266342 6.5399323v7.5258636c0 1.9125137 1.5503922 3.4629059 3.4629059 3.4629059h29.5828476c1.9125214 0 3.4629135-1.5503922 3.4629135-3.4629059v-7.5258636c0-2.4185181-.8996276-4.7494355-2.526596-6.5399323z" fill="#ebf0f3"/><ellipse cx="85.384" cy="39.259" fill="#fcd462" rx="7.723" ry="10.421"/><path d="m94.2035294 34.2713776c-.6144714-4.4874783-1.6088638-7.0487366-2.5184097-8.3600254-.9094849-1.3112202-1.2368927-.0917759-1.2368927-.0917759s-.3814392-2.0419483-5.8288651-1.2618332c-5.4474335.78018-8.2232666 7.8588181-8.82827 12.0188828-.3914261 2.6921387.3646698 4.9866142.9479294 6.2752609.0228653.4199104.2136459 1.8759766.1819687 2.2396317-.0928574 1.0658913.6977386 1.9999199 1.7646866 2.0791435 1.0422974.0773506 1.930748-.7469254 1.9316025-1.7920837-.1204605-.6705971-.3640137-1.3143425-.7200775-1.8952332-.3689499-.6019173-.6841354-1.1447868-.6841354-1.1447868s-1.4890518-6.2699356 2.0997162-7.5434036c3.5889053-1.2734337 4.865036-1.7117462 4.865036-1.7117462.0195847.5344925-3.099617 3.225872-3.099617 3.225872 6.5846405-.913475 8.099762-3.5654411 8.099762-3.5654411s1.0641174 3.2179222.8982468 6.2500916c-.165741 3.0321312-1.3393478 5.9685478-1.2801361 6.4312744.1516113 1.1836929 1.3658295 2.0028114 2.603775 1.6794777.8591461-.2243652 1.4548187-1.0078316 1.5222473-1.8931961.0227356-.2976723.0478439-.6055641.0778122-.9244652.2814101-2.9928362-.1818468-5.5281374-.7963792-10.0156442z" fill="#3a556a"/><path d="m19.886181 38.18092h9.460316v21.882759h-9.460316z" fill="#f7be56"/><path d="m40.344059 54.1461182c-.7272949-.8003044-1.5830994-1.4750671-2.5324287-1.9949722l-8.4651432-3.9707642c-.0008793.0004616-.000927.0005074-.0018063.0010185-.0925102.9847221-.5344486 1.9284019-1.2883816 2.5676842-1.9489269 1.6523552-4.8856792 1.6652794-6.8498459.0375214-.7473564-.6193581-1.2006893-1.526165-1.3191891-2.4895325l-.0010642-.0086632-8.4680605 3.8627357c-.9493322.5199051-1.8051338 1.1946678-2.5295134 1.9949722-1.6269693 1.7904968-2.5266409 4.121418-2.5266409 6.5399361v7.5258598c0 1.9125137 1.5503945 3.4629135 3.4629087 3.4629135h29.5828514c1.9125137 0 3.4629097-1.5503998 3.4629097-3.4629135v-7.5258598c.0000001-2.418518-.8996238-4.7494392-2.526596-6.539936z" fill="#44c4a1"/><path d="m32.3396721 39.2587738c0 5.7553253-3.4578495 10.4209404-7.72332 10.4209404s-7.7233181-4.6656151-7.7233181-10.4209404 3.8293591-11.5783501 8.0948296-11.5783501 7.3518085 5.8230286 7.3518085 11.5783501z" fill="#fcd462"/><path d="m39.6694336 40.6659241c-1.5189133 2.0980568-4.8730202.8824539-4.6661263-1.6994286.0945854-1.1803665.0862389-2.525692-.1452179-4.215889-.6144981-4.4875183-1.6088562-7.0487633-2.5184402-8.3600311-.9094467-1.3112202-2.6588058-.5709972-2.6588058-.5709972s-.3813915-2.0419464-5.8288498-1.2618389c-5.4474125.780201-8.2232342 7.8588448-8.8282804 12.0188942-.125824.8654785-.1329355 1.6883011-.0652943 2.4494781.223999 2.5207176-3.0710611 3.8019905-4.5962944 1.7826157-.2725964-.3609085-.5455894-.7822113-.8164911-1.2722244 0 0 .6893311 16.5998116 11.2879562 8.8391304l-1.1352997-2.2773781c-1.040041-2.1969566-1.252573-3.7597122-1.252573-3.7597122s-1.7033577-7.7374725 2.0997124-7.5433731c8.3154202.4243813 9.0792217-3.7374744 9.0792217-3.7374744s1.7738628 4.9008617 1.6841812 7.9362507c-.0901852 3.0524254-.2561016 4.4538116-.6438084 5.721489-.3204861 1.0478859-.8530273 2.0186844-1.5308762 2.8796692l-.3344231.4247742c10.5986252 7.7606812 11.5806389-8.4833755 11.5806389-8.4833755-.2359351.4267652-.4734611.8014066-.7109298 1.129421z" fill="#3a556a"/><path d="m61.2023849 57.8068161-6.1813392 2.0748405-5.7032509-2.0748405v-16.1685715h11.8845901z" fill="#f7be56"/><path d="m75.0185471 61.6946373c-.9136734-1.0053787-1.9887695-1.8530464-3.1813889-2.5062294l-7.6544037-4.1941338-1.2513199-.6861839-.7302094.1430931c-.0151443.1213493-.0317078.2523613-.0495071.391037l-7.0858574 4.8446045-6.6850395-4.8080635c-.0193901-.1509361-.037426-.2930298-.0537491-.4238663l-.7375755-.1468048-1.2329292.6751633-7.6764526 4.2051544c-1.1925545.653183-2.2677155 1.5008507-3.1777344 2.5062294-2.0438805 2.2493248-3.1740227 5.1775932-3.1740227 8.2158852v14.4396362c0 2.4032669 1.9482269 4.3515549 4.3514938 4.3515549h37.1612282c2.4033279 0 4.3515549-1.948288 4.3515549-4.3515549v-14.4396362c0-3.038292-1.1302033-5.9665604-3.1740875-8.2158852z" fill="#27a2db"/><path d="m61.2023849 51.2747192-4.8927459 6.732338 3.8896217 4.1934242 2.7314377-7.8908272z" fill="#ebf0f3"/><path d="m49.277317 51.2747192 4.8927498 6.732338-3.8896217 4.1934242-2.7314415-7.8908272z" fill="#ebf0f3"/><g fill="#fcd462"><ellipse cx="64.408" cy="38.882" rx="2.348" ry="1.126" transform="matrix(.162 -.987 .987 .162 15.63 96.161)"/><ellipse cx="46.294" cy="38.882" rx="1.126" ry="2.348" transform="matrix(.997 -.072 .072 .997 -2.663 3.411)"/><path d="m63.9772377 41.3505096-.3502464-10.3384246-1.2258492-3.3334122-7.1639404-1.932415-7.1639404 1.932415-1.225853 3.3334122-.3502426 10.3384247s-.4086113 2.5121384.5253677 4.3479309 1.8095818 2.674099 3.0354309 3.8974991c1.2258492 1.2234039 2.8282509 1.6027489 5.1792374 1.6787796 2.3509865-.0760307 3.9533844-.4553757 5.1792336-1.6787796 1.225853-1.2234001 2.1014557-2.0617065 3.0354347-3.8974991s.5253677-4.347931.5253677-4.347931z"/></g><path d="m54.1285172 63.0080376v15.1501198h1.785183v-15.1501198c.2327957-3.7034111 1.5273056-4.749527 1.5273056-4.749527l-.7512016-.8099022-1.5956268 1.905407-1.3418541-1.905407-1.1512033.8099022s1.2946014 1.0461159 1.5273972 4.749527z" fill="#ebf0f3"/><path d="m55.6878166 29.6913033c.4274406-.0750389 2.4446831-.4166737 4.1431427 0 1.6984558.4166756 2.9252434 2.5000496 2.8750153 2.7381477-.0502243.238102-.7964478 1.0714493-.504715 2.3214722.2917366 1.2500267.7420578 4.6060715.7420578 4.6060715s.2249069-2.9988976 1.1023674-2.1060219c.8774643.8928719.8616028 1.9643211.358017 2.8571968s-.6175308 2.6917953-.6175308 2.6917953 2.6418915-3.1084709 2.6883392-4.8942184 1.5574036-1.5476494-.1742935-4.2262726c0 0 1.1125336-2.1428967-.6644821-4.4643688 0 0-.4156036-2.7976742-1.500206-4.3453217-1.0846024-1.5476494-3.43507-3.2143478-4.6310692-3.0952969-1.1959991.1190491-.9803658-.4762001-2.3013687-.4762001-1.3209991 0-1.5390892.5357246-2.4899979.7738247-.9509087.2380981-2.4937782-.7738247-4.3612289.5357246-1.8674469 1.3095474-1.7975845 1.5476475-2.543808 2.3809967s.7892838 1.6666985-1.8734856 2.6190987c-2.6627693.9523983-.9554214 5.9524937-.9554214 5.9524937s-1.0631485 1.6666985-.3004494 2.7976723c.3693657.5477219.012455 2.7780304.4792557 3.9626732.4970856 1.2614975 1.258419 1.9419022 1.258419 1.9419022s.3050613-.6111641.232872-1.6411934c-.1229324-1.754097-.5311775-4.2611084.4609451-3.6844635.9801178.569664 1.2099838 3.0187988 1.2099838 3.0187988s.0523071-4.1929665.7114792-5.6810913c0 0-.9118271-1.726223.5230293-3.333395 1.4348564-1.6071739.9654388-2.7976723 2.5560799-2.083374 1.5906411.7143001 2.8625031.9587936 3.5770531.8333492z" fill="#3a556a"/></svg>