<svg height="512" viewBox="0 0 64 64" width="512" xmlns="http://www.w3.org/2000/svg"><g id="Household-Service"><path d="m51 21v30a2.006 2.006 0 0 1 -2 2h-44a2.006 2.006 0 0 1 -2-2v-30z" fill="#5aaae7"/><path d="m45 30v14a1.975 1.975 0 0 1 -1.84 1.99.808.808 0 0 1 -.16.01h-32a2.006 2.006 0 0 1 -2-2v-14a2.006 2.006 0 0 1 2-2h32a1.993 1.993 0 0 1 1.73 1.01 1.863 1.863 0 0 1 .27.99z" fill="#e6e7e8"/><path d="m45 30v14a1.975 1.975 0 0 1 -1.84 1.99.808.808 0 0 1 -.16.01h-24l18-18h6a1.993 1.993 0 0 1 1.73 1.01 1.863 1.863 0 0 1 .27.99z" fill="#d1d3d4"/><path d="m49 3h-44a2.006 2.006 0 0 0 -2 2v7h48v-7a2.006 2.006 0 0 0 -2-2z" fill="#3d9ae2"/><path d="m3 12h48v9h-48z" fill="#3d9ae2"/><path d="m61 45a16 16 0 0 1 -31.97 1c-.02-.33-.03-.66-.03-1a15.983 15.983 0 0 1 15.73-15.99 2.437 2.437 0 0 1 .27-.01 15.763 15.763 0 0 1 6 1.17 15.977 15.977 0 0 1 10 14.83z" fill="#ffd422"/><path d="m52.78 34.81-1.78.89-1.05.52-1.41 1.42 1.41 1.41 1.05 1.05.36.36 1.42-1.41 1.41-2.83z" fill="#d1d3d4"/><path d="m54.19 48.54a3.93 3.93 0 0 0 -3.19-1.14 3.789 3.789 0 0 0 -.66.11l-4.42-4.42-.92-.92-2.51-2.51a3.985 3.985 0 0 0 -4.89-4.88l1.74 1.73-.7 2.13-2.13.7-1.73-1.74a3.985 3.985 0 0 0 4.88 4.89l1.34 1.34 2.16 2.16 2.01 2.01 2.34 2.34a4 4 0 0 0 .21 2.66 3.789 3.789 0 0 0 .82 1.19 3.942 3.942 0 0 0 3.86 1.03l-1.74-1.73.7-2.13 2.13-.7 1.73 1.74a3.942 3.942 0 0 0 -1.03-3.86z" fill="#c6c5ca"/><path d="m45 46.83-1.06-1.06-.35-.35-1.42-1.42a.976.976 0 0 0 -1.17-.17.807.807 0 0 0 -.24.17l-2 2-3.66 3.66a1 1 0 0 0 0 1.41l1.41 1.42h.01l.51.51.9.9a1 1 0 0 0 1.41 0l.9-.9 4.76-4.76a.807.807 0 0 0 .17-.24.976.976 0 0 0 -.17-1.17z" fill="#00ccb3"/><g fill="#1e81ce"><path d="m44 11h7v2h-7z"/><path d="m3 11h7v2h-7z"/><path d="m14 11h9v2h-9z"/><path d="m27 11h9v2h-9z"/></g><path d="m35.636 49.364h6.001v2h-6.001z" fill="#00b39d" transform="matrix(.707 -.707 .707 .707 -24.296 42.071)"/><path d="m42.268 41.232h9v2h-9z" fill="#bcbec0" transform="matrix(.707 -.707 .707 .707 -16.164 45.439)"/><path d="m45 12v2a1 1 0 0 1 -1 1h-8a1 1 0 0 1 -1-1v-4a1 1 0 0 1 1-1h8a1 1 0 0 1 1 1z" fill="#ff9811"/><circle cx="25" cy="12" fill="#ff9811" r="3"/><circle cx="12" cy="12" fill="#ff9811" r="3"/></g></svg>