<?xml version="1.0" encoding="iso-8859-1"?>
<!-- Generator: Adobe Illustrator 19.0.0, SVG Export Plug-In . SVG Version: 6.00 Build 0)  -->
<svg version="1.1" id="Capa_1" xmlns="http://www.w3.org/2000/svg" xmlns:xlink="http://www.w3.org/1999/xlink" x="0px" y="0px"
	 viewBox="0 0 512.001 512.001" style="enable-background:new 0 0 512.001 512.001;" xml:space="preserve">
<path style="fill:#363C44;" d="M425.535,184.493c0,0-1.906-14.219-9.663-24.561c-7.757-10.342-62.484-26.717-68.517-27.579
	s-22.408,20.253-33.181,20.253s-58.175,0-58.175,0s-47.402,0-58.175,0s-27.148-21.115-33.181-20.253s-60.76,17.237-68.517,27.579
	s-9.663,24.561-9.663,24.561l120.974,52.553H345.24L425.535,184.493z"/>
<path style="fill:#2E343A;" d="M345.24,237.046l80.295-52.553c0,0-1.906-14.219-9.663-24.561
	c-5.528-7.371-34.909-17.804-53.522-23.504c-7.411,0.853-14.489,4.14-19.976,9.627l-33.684,33.684
	c-6.145,6.145-14.48,9.598-23.172,9.598H256h-29.519c-8.691,0-17.026-3.453-23.172-9.598l-33.684-33.684
	c-5.488-5.488-12.565-8.774-19.976-9.627c-18.613,5.7-47.994,16.133-53.522,23.504c-7.756,10.342-9.663,24.561-9.663,24.561
	l120.974,52.553L345.24,237.046L345.24,237.046z"/>
<path style="fill:#555E6B;" d="M256,216.383h29.519c8.691,0,17.026-3.452,23.172-9.598l33.684-33.684
	c9.334-9.334,23.258-12.357,35.622-7.734l33.784,12.632c28.214,10.549,49.486,34.228,56.963,63.407l40.188,156.829
	c10.951,42.735-8.071,87.51-46.432,109.295l0,0c-2.78,1.579-6.296,0.902-8.29-1.597l-68.746-86.1
	c-10.466-13.108-26.327-20.74-43.101-20.74H256h-86.361c-16.773,0-32.635,7.633-43.101,20.74l-68.746,86.1
	c-1.995,2.498-5.51,3.175-8.29,1.597l0,0C11.14,485.746-7.882,440.971,3.069,398.236l40.188-156.829
	c7.477-29.179,28.75-52.858,56.963-63.407l33.784-12.632c12.364-4.623,26.289-1.6,35.622,7.734l33.684,33.684
	c6.146,6.146,14.481,9.598,23.172,9.598L256,216.383"/>
<g>
	<path style="fill:#414954;" d="M508.931,398.236l-40.188-156.829c-7.477-29.179-28.749-52.858-56.963-63.407l-33.784-12.632
		c-10.599-3.963-22.336-2.292-31.354,4.142l22.707,8.49c28.214,10.549,49.486,34.228,56.963,63.407L466.5,398.236
		c8.603,33.574-1.301,68.401-24.541,92.356l12.249,15.342c1.995,2.498,5.51,3.176,8.291,1.597l0,0
		C500.86,485.746,519.882,440.971,508.931,398.236z"/>
	<path style="fill:#414954;" d="M84.107,419.834L27.61,490.592c6.341,6.536,13.668,12.269,21.891,16.939l0,0
		c2.78,1.579,6.296,0.902,8.29-1.597l68.746-86.1c10.466-13.108,26.327-20.74,43.101-20.74h-42.431
		C110.435,399.094,94.573,406.727,84.107,419.834z"/>
	<circle style="fill:#414954;" cx="128" cy="246.81" r="29.3"/>
	<circle style="fill:#414954;" cx="330.34" cy="327.79" r="40.24"/>
	<path style="fill:#414954;" d="M225.802,315.085H210.21c-2.55,0-4.617-2.067-4.617-4.617v-15.592c0-4.046-3.28-7.326-7.326-7.326
		h-10.76c-4.046,0-7.326,3.28-7.326,7.326v15.593c0,2.55-2.067,4.617-4.617,4.617h-15.592c-4.046,0-7.326,3.28-7.326,7.326v10.76
		c0,4.046,3.28,7.326,7.326,7.326h15.592c2.55,0,4.617,2.067,4.617,4.617v15.592c0,4.046,3.28,7.326,7.326,7.326h10.76
		c4.046,0,7.326-3.28,7.326-7.326v-15.592c0-2.55,2.067-4.617,4.617-4.617h15.592c4.046,0,7.326-3.28,7.326-7.326v-10.76
		C233.128,318.365,229.848,315.085,225.802,315.085z"/>
	<circle style="fill:#414954;" cx="354.94" cy="254.13" r="9.696"/>
	<circle style="fill:#414954;" cx="390.81" cy="217.61" r="9.696"/>
	<circle style="fill:#414954;" cx="389.06" cy="289.41" r="9.696"/>
	<circle style="fill:#414954;" cx="425.2" cy="254.13" r="9.696"/>
</g>
<circle style="fill:#FFD82F;" cx="128" cy="239.42" r="29.3"/>
<circle style="fill:#2E343A;" cx="330.34" cy="320.4" r="40.24"/>
<path style="fill:#49BC6E;" d="M225.802,307.695H210.21c-2.55,0-4.617-2.067-4.617-4.617v-15.592c0-4.046-3.28-7.326-7.326-7.326
	h-10.76c-4.046,0-7.326,3.28-7.326,7.326v15.593c0,2.55-2.067,4.617-4.617,4.617h-15.592c-4.046,0-7.326,3.28-7.326,7.326v10.76
	c0,4.046,3.28,7.326,7.326,7.326h15.592c2.55,0,4.617,2.067,4.617,4.617v15.592c0,4.046,3.28,7.326,7.326,7.326h10.76
	c4.046,0,7.326-3.28,7.326-7.326v-15.592c0-2.55,2.067-4.617,4.617-4.617h15.592c4.046,0,7.326-3.28,7.326-7.326v-10.76
	C233.128,310.975,229.848,307.695,225.802,307.695z"/>
<circle style="fill:#FFE92F;" cx="354.94" cy="246.74" r="9.696"/>
<circle style="fill:#F45735;" cx="390.81" cy="210.22" r="9.696"/>
<circle style="fill:#2B84E9;" cx="389.06" cy="282.02" r="9.696"/>
<circle style="fill:#49BC6E;" cx="425.2" cy="246.74" r="9.696"/>
<circle style="fill:#6E7A89;" cx="323.3" cy="308.76" r="22.263"/>
<circle style="fill:#49BC6E;" cx="256" cy="184.49" r="9.696"/>
<g>
	<circle style="fill:#2B84E9;" cx="256" cy="106.05" r="9.696"/>
	<g transform="translate(1 1)">
		<path style="fill:#2B84E9;" d="M212.573,64.802c-2.269,0-4.522-0.97-6.088-2.85c-2.799-3.36-2.343-8.353,1.016-11.151
			c28.019-23.338,68.693-23.338,96.711,0c3.36,2.798,3.815,7.791,1.016,11.151c-2.799,3.36-7.793,3.815-11.151,1.016
			c-22.151-18.447-54.299-18.447-76.443,0C216.157,64.201,214.36,64.802,212.573,64.802z"/>
		<path style="fill:#2B84E9;" d="M320.664,42.973c-1.86,0-3.728-0.652-5.233-1.978c-34.103-30.065-85.536-30.065-119.639,0
			c-3.28,2.892-8.283,2.576-11.175-0.703c-2.892-3.28-2.576-8.284,0.703-11.175c40.072-35.328,100.511-35.328,140.584,0
			c3.279,2.892,3.595,7.895,0.703,11.175C325.041,42.067,322.858,42.973,320.664,42.973z"/>
		<path style="fill:#2B84E9;" d="M277.002,86.693c-1.586,0-3.187-0.475-4.578-1.463c-10.037-7.131-23.527-7.132-33.564,0
			c-3.566,2.532-8.507,1.695-11.04-1.869c-2.532-3.564-1.696-8.507,1.869-11.04c15.524-11.029,36.382-11.028,51.906,0
			c3.565,2.533,4.401,7.476,1.869,11.04C281.92,85.534,279.479,86.693,277.002,86.693z"/>
	</g>
</g>
<g>
</g>
<g>
</g>
<g>
</g>
<g>
</g>
<g>
</g>
<g>
</g>
<g>
</g>
<g>
</g>
<g>
</g>
<g>
</g>
<g>
</g>
<g>
</g>
<g>
</g>
<g>
</g>
<g>
</g>
</svg>
