<svg id="icons" enable-background="new 0 0 64 64" height="512" viewBox="0 0 64 64" width="512" xmlns="http://www.w3.org/2000/svg"><path d="m15.494 49.49c-.08 0-.162-.01-.242-.03-.537-.134-.863-.677-.729-1.212l1-3.996c.133-.537.676-.865 1.211-.728.537.134.863.677.729 1.212l-1 3.996c-.113.456-.52.758-.969.758z" fill="#ccd1d9"/><path d="m27.486 49.49c-.447 0-.855-.303-.969-.758l-.998-3.996c-.135-.535.191-1.078.727-1.212.535-.137 1.078.191 1.213.728l.998 3.996c.135.535-.191 1.078-.727 1.212-.082.02-.164.03-.244.03z" fill="#ccd1d9"/><path d="m45.488 20.5v28.99c0 1.1.9 2 2 2h14.01c1.09 0 2-.9 2-2v-28.99z" fill="#545c66"/><path d="m54.498 28.5c1.1 0 2 .9 2 2 0 1.11-.9 2-2 2-1.109 0-2-.89-2-2 0-1.1.891-2 2-2z" fill="#5d9cec"/><path d="m63.498 15.51v1.99h-18.01v-1.99c0-1.1.9-2 2-2h14.01c1.09 0 2 .9 2 2z" fill="#545c66"/><path d="m45.488 17.5h18.01v3h-18.01z" fill="#656d78"/><path d="m15.488 48.49h12 2c1.1 0 2 .89 2 2v1h-20v-1c0-1.11.9-2 2-2z" fill="#e6e9ed"/><path d="m26.488 44.49 1 4h-12l1-4z" fill="#ccd1d9"/><path d="m1.549 40.49h39.93v2c0 1.1-.9 2-2 2h-4.01-8.98-10-12.991c-1.1 0-2-.9-2-2v-2z" fill="#e6e9ed"/><path d="m41.479 15.51v24.98h-39.93-.051v-24.98c0-1.1.9-2 2-2h35.98c1.1 0 2.001.9 2.001 2z" fill="#5d9cec"/><path d="m24.996 40.49h-5l-4.004-26.98h5z" fill="#87bcf4"/><path d="m26.998 40.49h-.996l-4.004-26.98h.996z" fill="#87bcf4"/><path d="m39.48 45.494h-35.978c-1.654 0-3-1.346-3-3v-26.984c0-1.654 1.346-3 3-3h35.978c1.654 0 3 1.346 3 3v26.984c0 1.654-1.345 3-3 3zm-35.978-30.984c-.553 0-1 .448-1 1v26.984c0 .552.447 1 1 1h35.978c.551 0 1-.448 1-1v-26.984c0-.552-.449-1-1-1z" fill="#e6e9ed"/><path d="m21.521 43.994c-.553 0-1.006-.447-1.006-1s.443-1 .994-1h.012c.551 0 1 .447 1 1s-.449 1-1 1z" fill="#ccd1d9"/><g fill="#434a54"><path d="m58.496 41.506h-8c-.553 0-1-.447-1-1s.447-1 1-1h8c.553 0 1 .447 1 1s-.447 1-1 1z"/><path d="m58.496 44.506h-8c-.553 0-1-.447-1-1s.447-1 1-1h8c.553 0 1 .447 1 1s-.447 1-1 1z"/><path d="m58.496 47.506h-8c-.553 0-1-.447-1-1s.447-1 1-1h8c.553 0 1 .447 1 1s-.447 1-1 1z"/></g></svg>