<svg id="Capa_1" enable-background="new 0 0 497 497" height="512" viewBox="0 0 497 497" width="512" xmlns="http://www.w3.org/2000/svg"><g><path d="m422 35h-30v352l30-60c16.5 0 30-13.5 30-30v-232c0-16.5-13.5-30-30-30z" fill="#3d5168"/><path d="m422 65c0-16.5-13.5-30-30-30h-317c-16.5 0-30 13.5-30 30v232c0 16.5 13.5 30 30 30l173.5 60 143.5-60c16.5 0 30-13.5 30-30l-75-116z" fill="#57697d"/><path d="m434.44 387v75h32.56c16.569 0 30-13.431 30-30z" fill="#3d5168"/><path d="m78.576 402-78.576 30c0 16.569 13.431 30 30 30h166l52.5-47.879 52.5 47.879h133.44c16.569 0 30-13.431 30-30v-30z" fill="#57697d"/><path d="m196 402h105v60h-105z" fill="#a6b0bd"/><path d="m459.79 345.18c-4.72-11.03-15.57-18.18-27.57-18.18h-32.56l64.78 105h32.56z" fill="#a6b0bd"/><path d="m427.23 345.18 4.988 11.82-23.505 14.972 36.428 15.028 19.299 45h-464.44l37.21-86.82c4.72-11.03 15.57-18.18 27.57-18.18h334.88c12 0 22.84 7.15 27.57 18.18z" fill="#c0c8d2"/><path d="m392 65-85 116 85 116h30v-232z" fill="#1e8aff"/><path d="m75 65h317v232h-317z" fill="#54a5ff"/><path d="m445.141 387-12.923-30h-367.436l-12.857 30z" fill="#57697d"/></g></svg>