<svg id="Capa_1" enable-background="new 0 0 497 497" height="512" viewBox="0 0 497 497" width="512" xmlns="http://www.w3.org/2000/svg"><g><g><path d="m94.866 355.4h-16.566c-4.143 0-7.5-3.358-7.5-7.5s3.357-7.5 7.5-7.5h16.566c4.143 0 7.5 3.358 7.5 7.5s-3.357 7.5-7.5 7.5z" fill="#9ca1af"/></g><g><path d="m94.866 322.267h-16.566c-4.143 0-7.5-3.358-7.5-7.5s3.357-7.5 7.5-7.5h16.566c4.143 0 7.5 3.358 7.5 7.5s-3.357 7.5-7.5 7.5z" fill="#9ca1af"/></g><path d="m390.067 265.067h20.133c8.837 0 16-7.163 16-16v-17.7c0-8.837-7.163-16-16-16h-20.133z" fill="#9ca1af"/><path d="m410.2 215.367h-20.133v.27c7.466 1.353 13.133 7.873 13.133 15.73v17.7c0 7.856-5.667 14.377-13.133 15.73v.27h20.133c8.837 0 16-7.163 16-16v-17.7c0-8.837-7.163-16-16-16z" fill="#717891"/><path d="m152.85 447.3 12.791 38.372c2.255 6.765 8.586 11.328 15.717 11.328h125.219c7.131 0 13.462-4.563 15.716-11.328l12.791-38.372v-397.6l-12.791-38.372c-2.255-6.765-8.586-11.328-15.717-11.328h-125.219c-7.131 0-13.462 4.563-15.717 11.328l-12.79 38.372z" fill="#f2f6fc"/><path d="m322.293 11.328c-2.255-6.765-8.586-11.328-15.717-11.328h-23c7.131 0 13.461 4.563 15.716 11.328l12.791 38.372v397.6l-12.791 38.372c-2.255 6.765-8.586 11.328-15.716 11.328h23c7.131 0 13.461-4.563 15.716-11.328l12.791-38.372v-397.6z" fill="#cdd2e1"/><path d="m185.983 447.3 16.567 49.7h82.833l16.567-49.7v-397.6l-16.567-49.7h-82.833l-16.567 49.7z" fill="#19cffc"/><path d="m359.933 431.3c0 8.837-7.163 16-16 16h-199.933c-8.837 0-16-7.163-16-16v-365.6c0-8.837 7.163-16 16-16h199.933c8.837 0 16 7.163 16 16z" fill="#cdd2e1"/><path d="m343.933 49.7h-23c8.837 0 16 7.164 16 16v365.6c0 8.837-7.163 16-16 16h23c8.837 0 16-7.163 16-16v-365.6c0-8.836-7.163-16-16-16z" fill="#9ca1af"/><path d="m390.067 182.233h20.133c8.837 0 16-7.163 16-16v-17.7c0-8.837-7.163-16-16-16h-20.133z" fill="#9ca1af"/><path d="m410.2 132.533h-20.133v.27c7.466 1.353 13.133 7.873 13.133 15.73v17.7c0 7.856-5.667 14.377-13.133 15.73v.27h20.133c8.837 0 16-7.163 16-16v-17.7c0-8.836-7.163-16-16-16z" fill="#717891"/><path d="m393.067 381.033c0 18.299-14.834 33.133-33.133 33.133h-231.934c-18.299 0-33.133-14.834-33.133-33.133v-265.066c0-18.299 14.834-33.133 33.133-33.133h231.933c18.299 0 33.133 14.834 33.133 33.133v265.066z" fill="#f2f6fc"/><path d="m359.933 82.833h-23c18.299 0 33.133 14.834 33.133 33.133v265.067c0 18.299-14.834 33.133-33.133 33.133h23c18.299 0 33.133-14.834 33.133-33.133v-265.066c.001-18.299-14.833-33.134-33.133-33.134z" fill="#cdd2e1"/><path d="m343.933 381.033h-199.933c-8.837 0-16-7.163-16-16v-233.066c0-8.837 7.163-16 16-16h199.933c8.837 0 16 7.163 16 16v233.067c0 8.836-7.163 15.999-16 15.999z" fill="#9ca1af"/><path d="m299.667 182.233h21.133c3.314 0 6-2.686 6-6v-21.133c0-3.314-2.686-6-6-6h-21.133c-3.314 0-6 2.686-6 6v21.133c0 3.314 2.686 6 6 6z" fill="#06ccab"/><path d="m243.967 230.757-.001-.001c-16.174-16.174-42.397-16.174-58.571 0s-16.174 42.397 0 58.571l.001.001 54.329 54.329c2.343 2.343 6.142 2.343 8.485 0l54.329-54.329c16.174-16.174 16.174-42.397 0-58.571s-42.398-16.174-58.572 0z" fill="#19cffc"/><g><path d="m161.134 173.167c-4.143 0-7.5-3.358-7.5-7.5v-16.567c0-4.142 3.357-7.5 7.5-7.5s7.5 3.358 7.5 7.5v16.566c0 4.143-3.357 7.501-7.5 7.501z" fill="#06ccab"/></g><g><path d="m194.267 173.167c-4.143 0-7.5-3.358-7.5-7.5v-16.567c0-4.142 3.357-7.5 7.5-7.5s7.5 3.358 7.5 7.5v16.566c0 4.143-3.358 7.501-7.5 7.501z" fill="#06ccab"/></g><g><path d="m227.4 173.167c-4.143 0-7.5-3.358-7.5-7.5v-16.567c0-4.142 3.357-7.5 7.5-7.5s7.5 3.358 7.5 7.5v16.566c0 4.143-3.357 7.501-7.5 7.501z" fill="#06ccab"/></g><path d="m343.933 115.967h-23c8.837 0 16 7.163 16 16v233.067c0 8.837-7.163 16-16 16h23c8.837 0 16-7.163 16-16v-233.067c0-8.837-7.163-16-16-16z" fill="#717891"/><path d="m302.539 230.757c-11.043-11.043-26.77-14.54-40.786-10.503 6.512 1.876 12.655 5.373 17.786 10.503 16.174 16.174 16.174 42.397 0 58.571l-47.072 47.072 7.257 7.257c2.343 2.343 6.142 2.343 8.485 0l54.329-54.329c16.175-16.174 16.175-42.397.001-58.571z" fill="#27ade2"/></g></svg>