<svg height="512pt" viewBox="-1 0 511 512" width="512pt" xmlns="http://www.w3.org/2000/svg"><path d="m215.695312 0h-124.164062l-91.03125 94.894531v398.410157c0 10.28125 8.414062 18.695312 18.695312 18.695312h196.5c10.285157 0 18.695313-8.414062 18.695313-18.695312v-474.609376c0-10.28125-8.410156-18.695312-18.695313-18.695312zm0 0" fill="#b1dbfc"/><path d="m31.40625 493.304688v-430.628907l-30.90625 32.21875v398.410157c0 10.28125 8.414062 18.695312 18.695312 18.695312h30.90625c-10.28125 0-18.695312-8.414062-18.695312-18.695312zm0 0" fill="#8cc9f9"/><path d="m196.390625 51.128906c0 8.875-7.195313 16.066406-16.070313 16.066406s-16.070312-7.191406-16.070312-16.066406 7.195312-16.070312 16.070312-16.070312 16.070313 7.195312 16.070313 16.070312zm0 0" fill="#60b8ff"/><path d="m93.550781 0h-74.355469c-10.28125 0-18.695312 8.414062-18.695312 18.695312v78.300782zm0 0" fill="#fee55a"/><path d="m31.40625 18.695312c0-10.28125 8.414062-18.695312 18.695312-18.695312h-30.90625c-10.28125 0-18.695312 8.414062-18.695312 18.695312v78.300782l30.90625-32.214844zm0 0" fill="#ffd301"/><path d="m155.207031 222.554688c10.8125 0 20.707031 3.902343 28.375 10.367187 9.84375-13.507813 15.671875-30.136719 15.671875-48.128906 0-45.179688-36.628906-81.804688-81.808594-81.804688-45.179687 0-81.804687 36.625-81.804687 81.804688 0 43.066406 33.285156 78.332031 75.527344 81.542969.144531-24.203126 19.800781-43.78125 44.039062-43.78125zm0 0" fill="#6c7ed6"/><path d="m66.546875 184.792969c0-39.894531 28.5625-73.101563 66.351563-80.328125-5.003907-.957032-10.167969-1.476563-15.453126-1.476563-45.179687 0-81.804687 36.625-81.804687 81.804688 0 43.066406 33.285156 78.332031 75.527344 81.542969.019531-2.828126.3125-5.59375.835937-8.269532-26.9375-13.378906-45.457031-41.152344-45.457031-73.273437zm0 0" fill="#4f67d2"/><path d="m417.746094 0h-124.164063c-10.285156 0-18.695312 8.414062-18.695312 18.695312v474.609376c0 10.28125 8.414062 18.695312 18.695312 18.695312h196.5c10.28125 0 18.695313-8.414062 18.695313-18.695312v-398.410157zm0 0" fill="#b1dbfc"/><path d="m305.789062 493.304688v-474.609376c0-10.28125 8.414063-18.695312 18.699219-18.695312h-30.90625c-10.28125 0-18.695312 8.414062-18.695312 18.695312v474.609376c0 10.28125 8.414062 18.695312 18.695312 18.695312h30.90625c-10.285156 0-18.699219-8.414062-18.699219-18.695312zm0 0" fill="#8cc9f9"/><path d="m345.027344 51.128906c0 8.875-7.195313 16.066406-16.070313 16.066406s-16.066406-7.191406-16.066406-16.066406 7.191406-16.070312 16.066406-16.070312 16.070313 7.195312 16.070313 16.070312zm0 0" fill="#60b8ff"/><path d="m183.480469 51.128906c0-5.265625 2.542969-9.921875 6.453125-12.855468-2.679688-2.007813-6.003906-3.214844-9.613282-3.214844-8.875 0-16.070312 7.195312-16.070312 16.070312s7.195312 16.066406 16.070312 16.066406c3.609376 0 6.933594-1.203124 9.613282-3.214843-3.910156-2.929688-6.453125-7.589844-6.453125-12.851563zm0 0" fill="#22a7ff"/><path d="m332.117188 51.128906c0-5.265625 2.542968-9.921875 6.457031-12.855468-2.683594-2.007813-6.003907-3.214844-9.617188-3.214844-8.875 0-16.066406 7.195312-16.066406 16.070312s7.191406 16.066406 16.066406 16.066406c3.613281 0 6.933594-1.203124 9.617188-3.214843-3.914063-2.929688-6.457031-7.589844-6.457031-12.851563zm0 0" fill="#22a7ff"/><path d="m415.726562 0h74.355469c10.28125 0 18.695313 8.414062 18.695313 18.695312v78.300782zm0 0" fill="#ff656f"/><path d="m446.632812 0h-30.90625l93.050782 96.996094v-32.214844zm0 0" fill="#ff4756"/><path d="m354.070312 222.554688c-10.8125 0-20.707031 3.902343-28.375 10.367187-9.84375-13.507813-15.667968-30.136719-15.667968-48.128906 0-45.179688 36.625-81.804688 81.804687-81.804688 45.179688 0 81.804688 36.625 81.804688 81.804688 0 43.066406-33.285157 78.332031-75.527344 81.542969-.140625-24.203126-19.800781-43.78125-44.039063-43.78125zm0 0" fill="#6c7ed6"/><path d="m341.183594 184.792969c0-39.851563 28.5-73.027344 66.226562-80.304688-5.046875-.972656-10.25-1.5-15.578125-1.5-45.179687 0-81.804687 36.625-81.804687 81.804688 0 17.992187 5.824218 34.621093 15.667968 48.128906 6.8125-5.746094 15.390626-9.460937 24.800782-10.21875-5.941406-11.332031-9.3125-24.222656-9.3125-37.910156zm0 0" fill="#4f67d2"/><path d="m120.894531 238.996094c8.070313-10.023438 20.441407-16.441406 34.3125-16.441406.417969 0 .832031.019531 1.246094.03125 9.476563-9.777344 15.320313-23.101563 15.320313-37.792969 0-30.003907-24.324219-54.324219-54.328126-54.324219-30 0-54.324218 24.320312-54.324218 54.324219 0 30.003906 24.320312 54.324219 54.324218 54.324219 1.160157 0 2.308594-.046876 3.449219-.121094zm0 0" fill="#4f67d2"/><path d="m94.027344 184.792969c0-24.632813 16.398437-45.425781 38.871094-52.082031-4.898438-1.453126-10.082032-2.242188-15.453126-2.242188-30.003906 0-54.324218 24.320312-54.324218 54.324219 0 30.003906 24.320312 54.324219 54.324218 54.324219 1.160157 0 2.308594-.046876 3.449219-.117188 1.410157-1.757812 2.964844-3.394531 4.625-4.910156-18.59375-8.628906-31.492187-27.453125-31.492187-49.296875zm0 0" fill="#324ccc"/><path d="m388.386719 238.996094c-8.074219-10.023438-20.441407-16.441406-34.316407-16.441406-.417968 0-.832031.019531-1.246093.03125-9.476563-9.777344-15.316407-23.101563-15.316407-37.792969 0-30.003907 24.320313-54.324219 54.324219-54.324219 30.003907 0 54.324219 24.320312 54.324219 54.324219 0 30.003906-24.320312 54.324219-54.324219 54.324219-1.160156 0-2.304687-.046876-3.445312-.121094zm0 0" fill="#4f67d2"/><path d="m364.980469 184.792969c0-25.257813 17.238281-46.484375 40.589843-52.570313-4.390624-1.144531-8.992187-1.753906-13.738281-1.753906-30.003906 0-54.324219 24.320312-54.324219 54.324219 0 14.691406 5.84375 28.011719 15.316407 37.792969.417969-.011719.828125-.03125 1.246093-.03125 13.875 0 26.242188 6.417968 34.316407 16.441406 1.140625.074218 2.289062.121094 3.445312.121094 4.746094 0 9.347657-.609376 13.738281-1.753907-23.351562-6.085937-40.589843-27.3125-40.589843-52.570312zm0 0" fill="#324ccc"/><path d="m354.070312 221.523438c-24.855468 0-45.074218 20.21875-45.074218 45.074218 0 24.855469 20.21875 45.074219 45.074218 45.074219 24.855469 0 45.074219-20.21875 45.074219-45.074219 0-24.855468-20.21875-45.074218-45.074219-45.074218zm0 0" fill="#6c7ed6"/><path d="m339.902344 266.597656c0-19.425781 12.355468-36.023437 29.621094-42.34375-4.820313-1.765625-10.027344-2.730468-15.453126-2.730468-24.855468 0-45.074218 20.21875-45.074218 45.074218 0 24.855469 20.21875 45.078125 45.074218 45.078125 5.425782 0 10.632813-.964843 15.453126-2.730469-17.265626-6.324218-29.621094-22.917968-29.621094-42.347656zm0 0" fill="#4f67d2"/><path d="m446.15625 392.871094c0 30.003906-24.320312 54.324218-54.324219 54.324218-30.003906 0-54.324219-24.320312-54.324219-54.324218s24.320313-54.324219 54.324219-54.324219c30.003907 0 54.324219 24.320313 54.324219 54.324219zm0 0" fill="#6c7ed6"/><g fill="#4f67d2"><path d="m368.066406 392.871094c0-24.695313 16.484375-45.527344 39.046875-52.132813-4.847656-1.417969-9.972656-2.191406-15.28125-2.191406-30.003906 0-54.324219 24.320313-54.324219 54.324219s24.320313 54.324218 54.324219 54.324218c5.308594 0 10.433594-.773437 15.28125-2.191406-22.5625-6.605468-39.046875-27.4375-39.046875-52.132812zm0 0"/><path d="m407.902344 392.871094c0 8.875-7.195313 16.070312-16.070313 16.070312s-16.070312-7.195312-16.070312-16.070312 7.195312-16.070313 16.070312-16.070313 16.070313 7.195313 16.070313 16.070313zm0 0"/><path d="m370.140625 266.597656c0 8.875-7.195313 16.070313-16.070313 16.070313s-16.066406-7.195313-16.066406-16.070313 7.191406-16.070312 16.066406-16.070312 16.070313 7.195312 16.070313 16.070312zm0 0"/></g><path d="m133.515625 184.792969c0 8.875-7.195313 16.070312-16.070313 16.070312s-16.066406-7.195312-16.066406-16.070312 7.191406-16.070313 16.066406-16.070313 16.070313 7.195313 16.070313 16.070313zm0 0" fill="#324ccc"/><path d="m407.902344 184.660156c0 8.875-7.195313 16.070313-16.070313 16.070313s-16.070312-7.195313-16.070312-16.070313 7.195312-16.066406 16.070312-16.066406 16.070313 7.191406 16.070313 16.066406zm0 0" fill="#324ccc"/><path d="m171.773438 392.871094c0 30.003906-24.324219 54.324218-54.328126 54.324218-30.003906 0-54.324218-24.320312-54.324218-54.324218s24.320312-54.324219 54.324218-54.324219c30.003907 0 54.328126 24.320313 54.328126 54.324219zm0 0" fill="#6c7ed6"/><path d="m93.683594 392.871094c0-24.695313 16.484375-45.527344 39.042968-52.132813-4.847656-1.417969-9.972656-2.191406-15.28125-2.191406-30 0-54.324218 24.320313-54.324218 54.324219s24.320312 54.324218 54.324218 54.324218c5.308594 0 10.433594-.773437 15.28125-2.191406-22.5625-6.605468-39.042968-27.4375-39.042968-52.132812zm0 0" fill="#4f67d2"/><path d="m133.515625 392.871094c0 8.875-7.195313 16.070312-16.070313 16.070312s-16.066406-7.195312-16.066406-16.070312 7.191406-16.070313 16.066406-16.070313 16.070313 7.195313 16.070313 16.070313zm0 0" fill="#4f67d2"/><path d="m155.207031 221.523438c-24.855469 0-45.074219 20.21875-45.074219 45.074218 0 24.855469 20.21875 45.074219 45.074219 45.074219s45.074219-20.21875 45.074219-45.074219c0-24.855468-20.21875-45.074218-45.074219-45.074218zm0 0" fill="#6c7ed6"/><path d="m141.035156 266.597656c0-19.425781 12.359375-36.023437 29.625-42.34375-4.824218-1.765625-10.027344-2.730468-15.453125-2.730468-24.855469 0-45.074219 20.21875-45.074219 45.074218 0 24.855469 20.21875 45.078125 45.074219 45.078125 5.425781 0 10.628907-.964843 15.453125-2.730469-17.265625-6.324218-29.625-22.917968-29.625-42.347656zm0 0" fill="#4f67d2"/><path d="m171.277344 266.597656c0 8.875-7.195313 16.070313-16.070313 16.070313s-16.070312-7.195313-16.070312-16.070313 7.195312-16.070312 16.070312-16.070312 16.070313 7.195312 16.070313 16.070312zm0 0" fill="#4f67d2"/></svg>