<svg height="512pt" viewBox="0 0 511 512" width="512pt" xmlns="http://www.w3.org/2000/svg"><path d="m479.019531 70.078125-47.363281-17.117187-133.277344-48c-14.722656-5.28125-30.5625-2.882813-42.722656 5.277343-12.160156-8.160156-28-10.558593-42.71875-5.277343l-133.28125 48-47.359375 17.117187c-24.957031 8.960937-37.917969 36.480469-28.957031 61.441406l76.316406 211.679688 32.160156 89.28125 143.839844-51.839844 143.839844 51.839844 32.160156-89.28125 76.320312-211.679688c8.960938-24.960937-4-52.480469-28.957031-61.441406zm0 0" fill="#168de2"/><path d="m479.019531 70.015625-180.640625-65.039063c-14.816406-5.34375-30.496094-2.769531-42.722656 5.328126-12.222656-8.097657-27.902344-10.65625-42.71875-5.328126l-180.65625 65.039063c-24.894531 8.960937-37.871094 36.511719-28.894531 61.425781l32.527343 90.320313 219.742188-79.121094 219.746094 79.121094 32.527344-90.320313c8.960937-24.898437-4-52.449218-28.910157-61.425781zm0 0" fill="#bfc9d1"/><path d="m351.65625 512h-192c-26.460938 0-48-21.535156-48-48v-416c0-26.464844 21.539062-48 48-48h192c26.464844 0 48 21.535156 48 48v416c0 26.464844-21.535156 48-48 48zm0 0" fill="#d7dee2"/><path d="m111.65625 144h288v224h-288zm0 0" fill="#40a2e7"/><g fill="#fff"><path d="m239.65625 64h96v32h-96zm0 0"/><path d="m175.65625 64h32v32h-32zm0 0"/><path d="m239.65625 424h32v32h-32zm0 0"/></g><path d="m351.65625 480h-192c-26.460938 0-48-21.535156-48-48v32c0 26.464844 21.539062 48 48 48h192c26.464844 0 48-21.535156 48-48v-32c0 26.464844-21.535156 48-48 48zm0 0" fill="#bfc9d1"/><path d="m111.65625 144h288v32h-288zm0 0" fill="#168de2"/></svg>