<svg height="480pt" viewBox="-31 0 479 480" width="480pt" xmlns="http://www.w3.org/2000/svg"><path d="m184.5 400h48v32h-48zm0 0" fill="#656665"/><path d="m304.5 480h-192c0-26.511719 21.488281-48 48-48h96c26.511719 0 48 21.488281 48 48zm0 0" fill="#999"/><path d="m232.5 112h168c8.839844 0 16 7.160156 16 16v256c0 8.839844-7.160156 16-16 16h-384c-8.839844 0-16-7.160156-16-16v-256c0-8.839844 7.160156-16 16-16h168" fill="#999"/><path d="m184.5 144h-152v224h352v-224h-152" fill="#94cce7"/><path d="m296.5 264v-32h-17.847656c-1.746094-7.679688-4.832032-14.816406-8.816406-21.335938l10.664062-10.664062-24-24-10.664062 10.664062c-6.527344-3.984374-13.65625-7.070312-21.335938-8.816406v-17.847656h-32v17.847656c-7.6875 1.746094-14.886719 4.738282-21.425781 8.726563l-10.574219-10.574219-24 24 10.574219 10.574219c-3.988281 6.539062-6.980469 13.738281-8.726563 21.425781h-17.847656v32h17.847656c1.746094 7.679688 4.832032 14.816406 8.816406 21.335938l-10.664062 10.664062 24 24 10.664062-10.664062c6.527344 3.984374 13.65625 7.070312 21.335938 8.816406v17.847656h32v-17.847656c7.6875-1.746094 14.886719-4.738282 21.425781-8.726563l10.574219 10.574219 24-24-10.574219-10.574219c3.988281-6.539062 6.980469-13.738281 8.726563-21.425781zm0 0" fill="#f8cf6a"/><path d="m232.5 224v-120l32-32v-40l-32-32v48h-48v-48l-32 32v40l32 32v120" fill="#bab8b9"/><path d="m232.5 48h-48v-8h-16v-24l-16 16v40l32 32v120h32v-128l32-32v-40l-16-16zm0 0" fill="#d9d7d8"/><path d="m248.5 248c0 22.089844-17.910156 40-40 40s-40-17.910156-40-40 17.910156-40 40-40 40 17.910156 40 40zm0 0" fill="#fff"/></svg>