<svg height="512pt" viewBox="0 0 512 512" width="512pt" xmlns="http://www.w3.org/2000/svg"><path d="m512 256c0 141.386719-114.613281 256-256 256s-256-114.613281-256-256 114.613281-256 256-256 256 114.613281 256 256zm0 0" fill="#8db0ff"/><path d="m427.957031 66.351562c41.230469 45.445313 66.351563 105.765626 66.351563 171.957032 0 141.386718-114.613282 256-256 256-66.191406 0-126.511719-25.121094-171.957032-66.351563 46.835938 51.621094 114.457032 84.042969 189.648438 84.042969 141.386719 0 256-114.613281 256-256 0-75.191406-32.421875-142.8125-84.042969-189.648438zm0 0" fill="#669af7"/><path d="m459.96875 256c0 112.648438-91.320312 203.96875-203.96875 203.96875s-203.96875-91.320312-203.96875-203.96875 91.320312-203.96875 203.96875-203.96875 203.96875 91.320312 203.96875 203.96875zm0 0" fill="#ddf5ff"/><path d="m390.273438 102.472656c31.402343 35.878906 50.441406 82.851563 50.441406 134.273438 0 112.648437-91.320313 203.96875-203.96875 203.96875-51.421875 0-98.394532-19.039063-134.273438-50.441406 37.386719 42.710937 92.304688 69.695312 153.527344 69.695312 112.648438 0 203.96875-91.320312 203.96875-203.96875 0-61.222656-26.980469-116.140625-69.695312-153.527344zm0 0" fill="#c1e9f4"/><path d="m272.648438 256h-33.296876v-133.203125c0-9.195313 7.453126-16.648437 16.648438-16.648437s16.648438 7.453124 16.648438 16.648437zm0 0" fill="#636363"/><path d="m244.226562 267.773438 23.546876-23.546876 72.113281 72.113282c6.5 6.503906 6.5 17.046875 0 23.546875-6.503907 6.503906-17.046875 6.503906-23.546875 0zm0 0" fill="#636363"/><path d="m149.855469 369.949219c-2 0-3.996094-.761719-5.519531-2.285157-3.050782-3.046874-3.050782-7.988281 0-11.039062l85.507812-85.507812c3.046875-3.046876 7.988281-3.046876 11.035156 0 3.050782 3.050781 3.050782 7.992187 0 11.039062l-85.507812 85.507812c-1.523438 1.523438-3.519532 2.285157-5.515625 2.285157zm0 0" fill="#ff6969"/><g fill="#636363"><path d="m263.804688 52.179688v20.664062c0 4.308594-3.496094 7.804688-7.804688 7.804688s-7.804688-3.496094-7.804688-7.804688v-20.664062c2.589844-.09375 5.191407-.148438 7.804688-.148438s5.214844.054688 7.804688.148438zm0 0"/><path d="m168.324219 104.136719c-1.226563.71875-2.570313 1.050781-3.890625 1.050781-2.695313 0-5.328125-1.394531-6.777344-3.902344l-10.34375-17.90625c4.394531-2.78125 8.898438-5.382812 13.519531-7.828125l10.355469 17.929688c2.152344 3.738281.875 8.503906-2.863281 10.65625zm0 0"/><path d="m104.136719 168.324219c-1.433594 2.507812-4.066407 3.902343-6.761719 3.902343-1.324219 0-2.664062-.332031-3.894531-1.039062l-17.929688-10.355469c2.445313-4.621093 5.046875-9.128906 7.828125-13.519531l17.910156 10.34375c3.734376 2.167969 5.011719 6.933594 2.847657 10.667969zm0 0"/><path d="m80.648438 256c0 4.308594-3.496094 7.804688-7.804688 7.804688h-20.664062c-.09375-2.589844-.148438-5.191407-.148438-7.804688s.054688-5.214844.148438-7.804688h20.664062c4.308594 0 7.804688 3.496094 7.804688 7.804688zm0 0"/><path d="m101.285156 354.339844-17.90625 10.34375c-2.78125-4.390625-5.382812-8.894532-7.828125-13.515625l17.929688-10.355469c3.738281-2.152344 8.503906-.875 10.65625 2.863281 2.164062 3.734375.886719 8.5-2.851563 10.664063zm0 0"/><path d="m171.1875 418.519531-10.355469 17.929688c-4.617187-2.445313-9.125-5.046875-13.515625-7.828125l10.34375-17.910156c2.164063-3.734376 6.929688-5.003907 10.664063-2.851563 3.738281 2.15625 5.015625 6.921875 2.863281 10.660156zm0 0"/><path d="m263.804688 439.152344v20.667968c-2.589844.09375-5.191407.148438-7.804688.148438s-5.214844-.054688-7.804688-.148438v-20.667968c0-4.304688 3.496094-7.804688 7.804688-7.804688 4.308594.003906 7.804688 3.5 7.804688 7.804688zm0 0"/><path d="m364.683594 428.621094c-4.390625 2.78125-8.894532 5.382812-13.515625 7.828125l-10.355469-17.929688c-2.152344-3.738281-.875-8.503906 2.863281-10.65625 3.734375-2.152343 8.5-.882812 10.667969 2.851563zm0 0"/><path d="m436.449219 351.167969c-2.445313 4.621093-5.046875 9.125-7.828125 13.515625l-17.90625-10.34375c-3.738282-2.164063-5.019532-6.929688-2.851563-10.664063 2.152344-3.738281 6.917969-5.019531 10.65625-2.863281zm0 0"/><path d="m459.96875 256c0 2.613281-.054688 5.214844-.148438 7.804688h-20.667968c-4.304688 0-7.804688-3.496094-7.804688-7.804688s3.5-7.804688 7.804688-7.804688h20.667968c.09375 2.589844.148438 5.191407.148438 7.804688zm0 0"/><path d="m436.449219 160.832031-17.929688 10.355469c-1.230469.707031-2.570312 1.039062-3.894531 1.039062-2.695312 0-5.316406-1.394531-6.761719-3.902343-2.164062-3.734375-.886719-8.5 2.851563-10.664063l17.90625-10.34375c2.78125 4.390625 5.382812 8.894532 7.828125 13.515625zm0 0"/><path d="m364.683594 83.378906-10.34375 17.90625c-1.445313 2.511719-4.078125 3.902344-6.773438 3.902344-1.324218 0-2.664062-.332031-3.890625-1.050781-3.738281-2.152344-5.019531-6.917969-2.863281-10.65625l10.351562-17.929688c4.625 2.445313 9.128907 5.046875 13.519532 7.828125zm0 0"/></g><path d="m287.21875 256c0 17.242188-13.976562 31.21875-31.21875 31.21875s-31.21875-13.976562-31.21875-31.21875 13.976562-31.21875 31.21875-31.21875 31.21875 13.976562 31.21875 31.21875zm0 0" fill="#8db0ff"/><path d="m273.820312 230.371094c3.523438 5.054687 5.59375 11.195312 5.59375 17.824218 0 17.242188-13.976562 31.21875-31.21875 31.21875-6.628906 0-12.769531-2.070312-17.824218-5.59375 5.644531 8.097657 15.015625 13.398438 25.628906 13.398438 17.242188 0 31.21875-13.976562 31.21875-31.21875 0-10.613281-5.300781-19.984375-13.398438-25.628906zm0 0" fill="#669af7"/></svg>